<svg width="36" height="36" viewBox="0 0 36 36" fill="none" xmlns="http://www.w3.org/2000/svg">
<g clip-path="url(#clip0_2_43)">
<path d="M27.0131 30C28.67 30 30.0131 28.6569 30.0131 27C30.0131 25.3431 28.67 24 27.0131 24C25.3563 24 24.0131 25.3431 24.0131 27C24.0131 28.6569 25.3563 30 27.0131 30Z" fill="#34A853"/>
<path d="M18.0131 24C20.4984 24 22.5131 21.9853 22.5131 19.5C22.5131 17.0147 20.4984 15 18.0131 15C15.5278 15 13.5131 17.0147 13.5131 19.5C13.5131 21.9853 15.5278 24 18.0131 24Z" fill="#4285F4"/>
<path d="M4.5 25.35C4.5 28.7456 7.25437 31.5 10.65 31.5H18V28.5L10.4813 28.4812C8.83125 28.4812 7.5 26.9456 7.5 25.125V21.75H4.5V25.35Z" fill="#EA4335"/>
<path d="M31.5 13.65C31.5 10.2544 28.7456 7.5 25.35 7.5H21.75L25.5 10.5C27.15 10.5 28.5 12.0544 28.5 13.875V19.5H31.5V13.65Z" fill="#FBBC05"/>
<path d="M21 4.5H15L12.75 7.5H10.65C7.25437 7.5 4.5 10.2544 4.5 13.65V17.25H7.5V13.875C7.5 12.0544 8.85 10.5 10.5 10.5H25.5L21 4.5Z" fill="#4285F4"/>
</g>
<defs>
<clipPath id="clip0_2_43">
<rect width="36" height="36" fill="white"/>
</clipPath>
</defs>
</svg>
