<svg width="37" height="37" viewBox="0 0 37 37" fill="none" xmlns="http://www.w3.org/2000/svg">
<path d="M18.5 23.125C21.0592 23.125 23.125 21.1054 23.125 18.5463V7.72375C23.125 5.16459 21.0592 3.08334 18.5 3.08334C15.9408 3.08334 13.875 5.14917 13.875 7.72375V18.5463C13.875 21.1054 15.9408 23.125 18.5 23.125Z" fill="#4285F4"/>
<path d="M16.9583 27.8733H20.0416V33.9167H16.9583V27.8733Z" fill="#34A853"/>
<path d="M10.8687 26.0079C8.91081 23.9575 7.70831 21.645 7.70831 18.5H10.7916C10.7916 20.7354 11.655 22.2308 13.0579 23.7108V24.2042L11.285 26.0233L10.8687 26.0079Z" fill="#FBBC05"/>
<path d="M18.5 26.1004C17.4859 26.1034 16.4813 25.8938 15.5445 25.4836C14.6077 25.0734 13.7572 24.4708 13.0425 23.7108L10.8688 26.0079C12.8113 28.0738 15.5246 29.2917 18.5 29.2917C24.4663 29.2917 29.2763 24.79 29.2763 18.5H26.2084C26.2084 23.0017 22.755 26.1004 18.5 26.1004Z" fill="#EA4335"/>
</svg>
